<mxfile host="app.diagrams.net" agent="Mozilla/5.0 (Windows NT 10.0; Win64; x64) AppleWebKit/537.36 (KHTML, like Gecko) Chrome/133.0.0.0 Safari/537.36" version="26.0.14">
  <diagram name="Page-1" id="e1TiszcAQvgpfgPblTH6">
    <mxGraphModel dx="1194" dy="716" grid="1" gridSize="10" guides="1" tooltips="1" connect="1" arrows="1" fold="1" page="1" pageScale="1" pageWidth="850" pageHeight="1100" math="0" shadow="0">
      <root>
        <mxCell id="0" />
        <mxCell id="1" parent="0" />
        <mxCell id="WgxtZ3xMRt9cT9mJnqBo-4" value="4" style="ellipse;aspect=fixed;fillColor=#0050ef;fontColor=#ffffff;strokeColor=#001DBC;" parent="1" vertex="1">
          <mxGeometry x="340" y="380" width="50" height="50" as="geometry" />
        </mxCell>
        <mxCell id="WgxtZ3xMRt9cT9mJnqBo-5" value="5" style="ellipse;aspect=fixed;fillColor=#0050ef;fontColor=#ffffff;strokeColor=#001DBC;" parent="1" vertex="1">
          <mxGeometry x="520" y="380" width="50" height="50" as="geometry" />
        </mxCell>
        <mxCell id="WgxtZ3xMRt9cT9mJnqBo-7" value="6" style="ellipse;aspect=fixed;fillColor=#0050ef;fontColor=#ffffff;strokeColor=#001DBC;" parent="1" vertex="1">
          <mxGeometry x="610" y="250" width="50" height="50" as="geometry" />
        </mxCell>
        <mxCell id="WgxtZ3xMRt9cT9mJnqBo-8" value="7" style="ellipse;aspect=fixed;fillColor=#0050ef;fontColor=#ffffff;strokeColor=#001DBC;" parent="1" vertex="1">
          <mxGeometry x="570" y="120" width="50" height="50" as="geometry" />
        </mxCell>
        <mxCell id="QiN_mr4yA5usqslSAaUG-3" value="1" style="ellipse;aspect=fixed;fillColor=#0050ef;fontColor=#ffffff;strokeColor=#001DBC;" parent="1" vertex="1">
          <mxGeometry x="430" y="60" width="50" height="50" as="geometry" />
        </mxCell>
        <mxCell id="QiN_mr4yA5usqslSAaUG-4" value="2" style="ellipse;aspect=fixed;fillColor=#0050ef;fontColor=#ffffff;strokeColor=#001DBC;" parent="1" vertex="1">
          <mxGeometry x="270" y="130" width="50" height="50" as="geometry" />
        </mxCell>
        <mxCell id="QiN_mr4yA5usqslSAaUG-13" value="3" style="ellipse;aspect=fixed;fillColor=#0050ef;fontColor=#ffffff;strokeColor=#001DBC;" parent="1" vertex="1">
          <mxGeometry x="230" y="260" width="50" height="50" as="geometry" />
        </mxCell>
        <mxCell id="QiN_mr4yA5usqslSAaUG-18" value="" style="endArrow=none;rounded=0;strokeWidth=4;entryX=0.94;entryY=0.68;entryDx=0;entryDy=0;entryPerimeter=0;exitX=0;exitY=0.5;exitDx=0;exitDy=0;" parent="1" target="QiN_mr4yA5usqslSAaUG-5" edge="1">
          <mxGeometry width="50" height="50" relative="1" as="geometry">
            <mxPoint x="600" y="185" as="sourcePoint" />
            <mxPoint x="660" y="130" as="targetPoint" />
          </mxGeometry>
        </mxCell>
        <mxCell id="1RYsxwtu4yks75y-5LN4-1" value="" style="endArrow=none;rounded=0;strokeWidth=4;entryX=1;entryY=0.5;entryDx=0;entryDy=0;exitX=0;exitY=0;exitDx=0;exitDy=0;" parent="1" source="WgxtZ3xMRt9cT9mJnqBo-8" target="QiN_mr4yA5usqslSAaUG-3" edge="1">
          <mxGeometry width="50" height="50" relative="1" as="geometry">
            <mxPoint x="500" y="145" as="sourcePoint" />
            <mxPoint x="440" y="120" as="targetPoint" />
          </mxGeometry>
        </mxCell>
        <mxCell id="1RYsxwtu4yks75y-5LN4-2" value="" style="endArrow=none;rounded=0;strokeWidth=4;exitX=0.5;exitY=0;exitDx=0;exitDy=0;entryX=1;entryY=1;entryDx=0;entryDy=0;" parent="1" target="QiN_mr4yA5usqslSAaUG-11" edge="1">
          <mxGeometry width="50" height="50" relative="1" as="geometry">
            <mxPoint x="675" y="250" as="sourcePoint" />
            <mxPoint x="450" y="130" as="targetPoint" />
          </mxGeometry>
        </mxCell>
        <mxCell id="1RYsxwtu4yks75y-5LN4-3" value="" style="endArrow=none;rounded=0;strokeWidth=4;exitX=0.5;exitY=0;exitDx=0;exitDy=0;entryX=0.5;entryY=1;entryDx=0;entryDy=0;" parent="1" target="QiN_mr4yA5usqslSAaUG-12" edge="1">
          <mxGeometry width="50" height="50" relative="1" as="geometry">
            <mxPoint x="665" y="340" as="sourcePoint" />
            <mxPoint x="653" y="213" as="targetPoint" />
          </mxGeometry>
        </mxCell>
        <mxCell id="1RYsxwtu4yks75y-5LN4-5" value="" style="endArrow=none;rounded=0;strokeWidth=4;exitX=1;exitY=1;exitDx=0;exitDy=0;entryX=0.5;entryY=0;entryDx=0;entryDy=0;" parent="1" source="WgxtZ3xMRt9cT9mJnqBo-8" target="WgxtZ3xMRt9cT9mJnqBo-7" edge="1">
          <mxGeometry width="50" height="50" relative="1" as="geometry">
            <mxPoint x="705" y="280" as="sourcePoint" />
            <mxPoint x="673" y="233" as="targetPoint" />
          </mxGeometry>
        </mxCell>
        <mxCell id="1RYsxwtu4yks75y-5LN4-6" value="" style="endArrow=none;rounded=0;strokeWidth=4;entryX=1;entryY=0;entryDx=0;entryDy=0;exitX=0;exitY=1;exitDx=0;exitDy=0;" parent="1" source="WgxtZ3xMRt9cT9mJnqBo-7" target="WgxtZ3xMRt9cT9mJnqBo-5" edge="1">
          <mxGeometry width="50" height="50" relative="1" as="geometry">
            <mxPoint x="620" y="300" as="sourcePoint" />
            <mxPoint x="683" y="243" as="targetPoint" />
          </mxGeometry>
        </mxCell>
        <mxCell id="1RYsxwtu4yks75y-5LN4-7" value="" style="endArrow=none;rounded=0;strokeWidth=4;exitX=0;exitY=0.5;exitDx=0;exitDy=0;entryX=1;entryY=0.5;entryDx=0;entryDy=0;" parent="1" source="WgxtZ3xMRt9cT9mJnqBo-5" target="WgxtZ3xMRt9cT9mJnqBo-4" edge="1">
          <mxGeometry width="50" height="50" relative="1" as="geometry">
            <mxPoint x="725" y="300" as="sourcePoint" />
            <mxPoint x="693" y="253" as="targetPoint" />
          </mxGeometry>
        </mxCell>
        <mxCell id="1RYsxwtu4yks75y-5LN4-8" value="" style="endArrow=none;rounded=0;strokeWidth=4;exitX=0;exitY=0;exitDx=0;exitDy=0;entryX=1;entryY=1;entryDx=0;entryDy=0;" parent="1" source="WgxtZ3xMRt9cT9mJnqBo-4" target="QiN_mr4yA5usqslSAaUG-13" edge="1">
          <mxGeometry width="50" height="50" relative="1" as="geometry">
            <mxPoint x="735" y="310" as="sourcePoint" />
            <mxPoint x="703" y="263" as="targetPoint" />
          </mxGeometry>
        </mxCell>
        <mxCell id="1RYsxwtu4yks75y-5LN4-9" value="" style="endArrow=none;rounded=0;strokeWidth=4;exitX=0.5;exitY=1;exitDx=0;exitDy=0;entryX=0.5;entryY=0;entryDx=0;entryDy=0;" parent="1" source="QiN_mr4yA5usqslSAaUG-4" target="QiN_mr4yA5usqslSAaUG-13" edge="1">
          <mxGeometry width="50" height="50" relative="1" as="geometry">
            <mxPoint x="745" y="320" as="sourcePoint" />
            <mxPoint x="713" y="273" as="targetPoint" />
          </mxGeometry>
        </mxCell>
        <mxCell id="1RYsxwtu4yks75y-5LN4-10" value="" style="endArrow=none;rounded=0;strokeWidth=4;exitX=0;exitY=0.5;exitDx=0;exitDy=0;entryX=1;entryY=0;entryDx=0;entryDy=0;" parent="1" source="QiN_mr4yA5usqslSAaUG-3" target="QiN_mr4yA5usqslSAaUG-4" edge="1">
          <mxGeometry width="50" height="50" relative="1" as="geometry">
            <mxPoint x="755" y="330" as="sourcePoint" />
            <mxPoint x="723" y="283" as="targetPoint" />
          </mxGeometry>
        </mxCell>
        <mxCell id="4e32DrV_isJNH7HH6DVw-2" value="" style="endArrow=none;rounded=0;strokeWidth=4;exitX=0;exitY=0;exitDx=0;exitDy=0;entryX=1;entryY=0;entryDx=0;entryDy=0;dashed=1;" edge="1" parent="1" source="WgxtZ3xMRt9cT9mJnqBo-8" target="QiN_mr4yA5usqslSAaUG-4">
          <mxGeometry width="50" height="50" relative="1" as="geometry">
            <mxPoint x="440" y="95" as="sourcePoint" />
            <mxPoint x="323" y="147" as="targetPoint" />
          </mxGeometry>
        </mxCell>
        <mxCell id="4e32DrV_isJNH7HH6DVw-3" value="" style="endArrow=none;rounded=0;strokeWidth=4;exitX=0;exitY=0;exitDx=0;exitDy=0;entryX=0.5;entryY=1;entryDx=0;entryDy=0;" edge="1" parent="1" source="WgxtZ3xMRt9cT9mJnqBo-4" target="QiN_mr4yA5usqslSAaUG-4">
          <mxGeometry width="50" height="50" relative="1" as="geometry">
            <mxPoint x="450" y="105" as="sourcePoint" />
            <mxPoint x="333" y="157" as="targetPoint" />
          </mxGeometry>
        </mxCell>
        <mxCell id="4e32DrV_isJNH7HH6DVw-4" value="" style="endArrow=none;rounded=0;strokeWidth=4;exitX=0;exitY=0.5;exitDx=0;exitDy=0;entryX=0.5;entryY=0;entryDx=0;entryDy=0;" edge="1" parent="1" source="QiN_mr4yA5usqslSAaUG-3" target="QiN_mr4yA5usqslSAaUG-13">
          <mxGeometry width="50" height="50" relative="1" as="geometry">
            <mxPoint x="460" y="115" as="sourcePoint" />
            <mxPoint x="343" y="167" as="targetPoint" />
          </mxGeometry>
        </mxCell>
        <mxCell id="4e32DrV_isJNH7HH6DVw-5" value="" style="endArrow=none;rounded=0;strokeWidth=4;exitX=0;exitY=0.5;exitDx=0;exitDy=0;entryX=1;entryY=1;entryDx=0;entryDy=0;" edge="1" parent="1" source="WgxtZ3xMRt9cT9mJnqBo-5" target="QiN_mr4yA5usqslSAaUG-13">
          <mxGeometry width="50" height="50" relative="1" as="geometry">
            <mxPoint x="470" y="125" as="sourcePoint" />
            <mxPoint x="353" y="177" as="targetPoint" />
          </mxGeometry>
        </mxCell>
        <mxCell id="4e32DrV_isJNH7HH6DVw-6" value="" style="endArrow=none;rounded=0;strokeWidth=4;exitX=0;exitY=1;exitDx=0;exitDy=0;entryX=1;entryY=0.5;entryDx=0;entryDy=0;" edge="1" parent="1" source="WgxtZ3xMRt9cT9mJnqBo-7" target="WgxtZ3xMRt9cT9mJnqBo-4">
          <mxGeometry width="50" height="50" relative="1" as="geometry">
            <mxPoint x="480" y="135" as="sourcePoint" />
            <mxPoint x="363" y="187" as="targetPoint" />
          </mxGeometry>
        </mxCell>
        <mxCell id="4e32DrV_isJNH7HH6DVw-9" value="" style="endArrow=none;rounded=0;strokeWidth=4;entryX=1;entryY=0;entryDx=0;entryDy=0;exitX=1;exitY=1;exitDx=0;exitDy=0;" edge="1" parent="1" source="WgxtZ3xMRt9cT9mJnqBo-8" target="WgxtZ3xMRt9cT9mJnqBo-5">
          <mxGeometry width="50" height="50" relative="1" as="geometry">
            <mxPoint x="627" y="303" as="sourcePoint" />
            <mxPoint x="573" y="397" as="targetPoint" />
          </mxGeometry>
        </mxCell>
        <mxCell id="4e32DrV_isJNH7HH6DVw-10" value="" style="endArrow=none;rounded=0;strokeWidth=4;entryX=0.5;entryY=0;entryDx=0;entryDy=0;exitX=1;exitY=0.5;exitDx=0;exitDy=0;" edge="1" parent="1" source="QiN_mr4yA5usqslSAaUG-3" target="WgxtZ3xMRt9cT9mJnqBo-7">
          <mxGeometry width="50" height="50" relative="1" as="geometry">
            <mxPoint x="637" y="313" as="sourcePoint" />
            <mxPoint x="583" y="407" as="targetPoint" />
          </mxGeometry>
        </mxCell>
        <mxCell id="4e32DrV_isJNH7HH6DVw-13" value="" style="endArrow=none;rounded=0;strokeWidth=4;exitX=0;exitY=0;exitDx=0;exitDy=0;entryX=1;entryY=0;entryDx=0;entryDy=0;dashed=1;dashPattern=1 2;fillColor=#e51400;strokeColor=#B20000;" edge="1" parent="1" source="WgxtZ3xMRt9cT9mJnqBo-7" target="QiN_mr4yA5usqslSAaUG-4">
          <mxGeometry width="50" height="50" relative="1" as="geometry">
            <mxPoint x="627" y="303" as="sourcePoint" />
            <mxPoint x="400" y="415" as="targetPoint" />
          </mxGeometry>
        </mxCell>
        <mxCell id="4e32DrV_isJNH7HH6DVw-14" value="" style="endArrow=none;rounded=0;strokeWidth=4;exitX=0;exitY=0;exitDx=0;exitDy=0;entryX=1;entryY=0;entryDx=0;entryDy=0;dashed=1;dashPattern=1 2;fillColor=#e51400;strokeColor=#B20000;" edge="1" parent="1" source="WgxtZ3xMRt9cT9mJnqBo-5" target="QiN_mr4yA5usqslSAaUG-4">
          <mxGeometry width="50" height="50" relative="1" as="geometry">
            <mxPoint x="627" y="267" as="sourcePoint" />
            <mxPoint x="323" y="147" as="targetPoint" />
          </mxGeometry>
        </mxCell>
      </root>
    </mxGraphModel>
  </diagram>
</mxfile>
